<?xml version="1.0" encoding="UTF-8"?>
<svg xmlns="http://www.w3.org/2000/svg" xmlns:xlink="http://www.w3.org/1999/xlink" viewBox="0 0 48 48" width="48px" height="48px">
<g id="surface31639862">
<path style=" stroke:none;fill-rule:nonzero;fill:rgb(100%,89.803922%,67.450982%);fill-opacity:1;" d="M 24 48 C 10.746094 48 0 37.253906 0 24 C 0 10.746094 10.746094 0 24 0 C 37.253906 0 48 10.746094 48 24 C 48 37.253906 37.253906 48 24 48 Z M 24 48 "/>
<path style=" stroke:none;fill-rule:nonzero;fill:rgb(100%,59.607846%,0%);fill-opacity:1;" d="M 29.484375 14.398438 C 24.183594 14.398438 19.886719 18.699219 19.886719 24 C 19.886719 29.300781 24.183594 33.601562 29.484375 33.601562 C 34.789062 33.601562 39.085938 29.300781 39.085938 24 C 39.085938 18.699219 34.789062 14.398438 29.484375 14.398438 Z M 29.484375 14.398438 "/>
<path style=" stroke:none;fill-rule:nonzero;fill:rgb(83.529413%,0%,0%);fill-opacity:1;" d="M 18.515625 14.398438 C 13.210938 14.398438 8.914062 18.699219 8.914062 24 C 8.914062 29.300781 13.210938 33.601562 18.515625 33.601562 C 23.816406 33.601562 28.113281 29.300781 28.113281 24 C 28.113281 18.699219 23.816406 14.398438 18.515625 14.398438 Z M 18.515625 14.398438 "/>
<path style=" stroke:none;fill-rule:nonzero;fill:rgb(100%,23.921569%,0%);fill-opacity:1;" d="M 19.886719 24 C 19.886719 27.261719 21.515625 30.136719 24 31.871094 C 26.484375 30.136719 28.113281 27.261719 28.113281 24 C 28.113281 20.738281 26.484375 17.863281 24 16.128906 C 21.515625 17.863281 19.886719 20.738281 19.886719 24 Z M 19.886719 24 "/>
</g>
</svg>
