<?xml version="1.0" encoding="UTF-8"?>
<svg xmlns="http://www.w3.org/2000/svg" xmlns:xlink="http://www.w3.org/1999/xlink" viewBox="0 0 48 48" width="48px" height="48px">
<g id="surface37206931">
<path style=" stroke:none;fill-rule:nonzero;fill:rgb(81.568629%,90.588236%,93.725491%);fill-opacity:1;" d="M 24 48 C 10.746094 48 0 37.253906 0 24 C 0 10.746094 10.746094 0 24 0 C 37.253906 0 48 10.746094 48 24 C 48 37.253906 37.253906 48 24 48 Z M 24 48 "/>
<path style=" stroke:none;fill-rule:nonzero;fill:rgb(8.235294%,39.607844%,75.294119%);fill-opacity:1;" d="M 19.558594 15.8125 L 19.5625 15.816406 C 19.648438 15.460938 19.949219 15.199219 20.328125 15.199219 L 31.105469 15.199219 C 31.121094 15.199219 31.132812 15.195312 31.148438 15.195312 C 30.917969 11.371094 27.710938 9.601562 24.878906 9.601562 L 14.101562 9.601562 C 13.722656 9.601562 13.421875 9.867188 13.339844 10.222656 L 13.335938 10.21875 L 8.625 31.851562 L 8.632812 31.851562 C 8.621094 31.902344 8.601562 31.953125 8.601562 32.007812 C 8.601562 32.449219 8.960938 32.800781 9.402344 32.800781 L 15.859375 32.800781 Z M 19.558594 15.8125 "/>
<path style=" stroke:none;fill-rule:nonzero;fill:rgb(1.176471%,60.784316%,89.803922%);fill-opacity:1;" d="M 31.148438 15.195312 C 31.1875 15.894531 31.140625 16.660156 30.964844 17.5 C 29.9375 22.296875 26.234375 24.792969 21.65625 24.792969 C 21.65625 24.792969 18.878906 24.792969 18.203125 24.792969 C 17.789062 24.792969 17.589844 25.039062 17.5 25.226562 L 16.109375 31.664062 L 15.863281 32.808594 L 15.859375 32.808594 L 14.851562 37.445312 L 14.859375 37.445312 C 14.847656 37.496094 14.828125 37.542969 14.828125 37.601562 C 14.828125 38.042969 15.1875 38.398438 15.628906 38.398438 L 21.496094 38.398438 L 21.503906 38.390625 C 21.882812 38.386719 22.183594 38.117188 22.261719 37.761719 L 22.277344 37.75 L 23.726562 31.015625 C 23.726562 31.015625 23.828125 30.375 24.5 30.375 C 25.175781 30.375 27.84375 30.375 27.84375 30.375 C 32.421875 30.375 36.164062 27.890625 37.191406 23.09375 C 38.34375 17.683594 34.488281 15.214844 31.148438 15.195312 Z M 31.148438 15.195312 "/>
<path style=" stroke:none;fill-rule:nonzero;fill:rgb(15.686275%,20.784314%,57.647061%);fill-opacity:1;" d="M 20.328125 15.199219 C 19.949219 15.199219 19.648438 15.460938 19.5625 15.816406 L 19.558594 15.8125 L 17.5 25.226562 C 17.589844 25.039062 17.789062 24.792969 18.203125 24.792969 C 18.878906 24.792969 21.59375 24.792969 21.59375 24.792969 C 26.171875 24.792969 29.9375 22.296875 30.960938 17.5 C 31.140625 16.660156 31.1875 15.898438 31.144531 15.195312 C 31.132812 15.195312 31.117188 15.199219 31.105469 15.199219 Z M 20.328125 15.199219 "/>
</g>
</svg>
