<?xml version="1.0" encoding="UTF-8"?>
<svg xmlns="http://www.w3.org/2000/svg" xmlns:xlink="http://www.w3.org/1999/xlink" viewBox="0 0 48 48" width="48px" height="48px">
<g id="surface38268362">
<path style=" stroke:none;fill-rule:nonzero;fill:rgb(80.784315%,90.588236%,96.078432%);fill-opacity:1;" d="M 24 48 C 10.746094 48 0 37.253906 0 24 C 0 10.746094 10.746094 0 24 0 C 37.253906 0 48 10.746094 48 24 C 48 37.253906 37.253906 48 24 48 Z M 24 48 "/>
<path style=" stroke:none;fill-rule:nonzero;fill:rgb(5.098039%,27.843139%,63.137257%);fill-opacity:1;" d="M 9.597656 19.238281 L 5.796875 19.238281 C 5.582031 19.238281 5.40625 19.367188 5.40625 19.625 L 5.371094 28.945312 C 5.371094 29.179688 5.523438 29.296875 5.730469 29.296875 C 6.300781 29.296875 6.769531 29.296875 7.339844 29.296875 C 7.535156 29.296875 7.699219 29.199219 7.699219 29.003906 C 7.699219 28.140625 7.699219 27.078125 7.699219 26.214844 L 9.351562 26.222656 C 10.4375 26.152344 11.160156 25.644531 11.464844 24.628906 C 11.554688 24.324219 11.574219 24.058594 11.574219 23.746094 L 11.660156 21.523438 C 11.578125 19.964844 10.765625 19.371094 9.597656 19.238281 Z M 9.246094 23.472656 C 9.246094 23.699219 9.0625 23.886719 8.832031 23.886719 L 7.699219 23.886719 L 7.699219 21.558594 L 8.832031 21.558594 C 9.0625 21.558594 9.246094 21.742188 9.246094 21.972656 Z M 16.191406 19.230469 L 13.53125 19.230469 C 13.332031 19.230469 13.15625 19.292969 13.15625 19.5 C 13.15625 20.050781 13.15625 20.660156 13.15625 21.210938 C 13.179688 21.4375 13.335938 21.558594 13.5625 21.558594 L 15.777344 21.558594 C 16.238281 21.558594 16.191406 22.3125 15.777344 22.335938 L 14.5625 22.335938 C 13.210938 22.335938 12.355469 23.546875 12.355469 24.769531 C 12.355469 25.09375 12.359375 25.859375 12.355469 26.214844 C 12.351562 26.71875 12.347656 27.234375 12.445312 27.6875 C 12.617188 28.496094 13.316406 29.320312 14.371094 29.320312 L 17.65625 29.320312 C 18.074219 29.320312 18.566406 28.953125 18.566406 28.464844 L 18.566406 22.042969 C 18.585938 20.347656 17.746094 19.320312 16.191406 19.230469 Z M 16.238281 26.640625 C 16.238281 26.835938 16.082031 26.992188 15.890625 26.992188 L 15.03125 26.992188 C 14.839844 26.992188 14.683594 26.835938 14.683594 26.640625 L 14.683594 25.011719 C 14.683594 24.820312 14.839844 24.664062 15.03125 24.664062 L 15.890625 24.664062 C 16.082031 24.664062 16.238281 24.820312 16.238281 25.011719 Z M 19.34375 19.691406 L 19.34375 24.042969 C 19.4375 25.285156 20.589844 26.214844 21.804688 26.214844 L 22.902344 26.214844 C 23.363281 26.214844 23.335938 26.96875 22.902344 26.96875 L 20.5 26.96875 C 20.234375 26.96875 20.140625 27.105469 20.140625 27.335938 L 20.140625 29.007812 C 20.140625 29.183594 20.28125 29.316406 20.46875 29.316406 L 22.765625 29.316406 C 24.640625 29.316406 25.554688 28.414062 25.550781 26.398438 L 25.550781 19.535156 C 25.550781 19.324219 25.417969 19.238281 25.285156 19.238281 L 23.5 19.238281 C 23.328125 19.238281 23.222656 19.429688 23.222656 19.566406 L 23.222656 23.617188 C 23.222656 23.773438 23.136719 23.863281 23 23.863281 L 21.988281 23.863281 C 21.785156 23.863281 21.671875 23.75 21.671875 23.554688 L 21.671875 19.628906 C 21.671875 19.398438 21.578125 19.230469 21.324219 19.230469 C 20.71875 19.230469 20.203125 19.230469 19.601562 19.230469 C 19.394531 19.230469 19.34375 19.433594 19.34375 19.691406 Z M 19.34375 19.691406 "/>
<path style=" stroke:none;fill-rule:nonzero;fill:rgb(0%,67.843139%,93.333334%);fill-opacity:1;" d="M 26.359375 21.222656 L 26.359375 19.5625 C 26.359375 19.378906 26.507812 19.230469 26.691406 19.230469 L 27.105469 19.230469 C 28.167969 19.007812 28.542969 18.746094 29.191406 18.046875 C 29.589844 17.617188 29.941406 17.5 30.199219 17.960938 L 30.210938 19.230469 L 31.425781 19.230469 C 31.613281 19.230469 31.761719 19.378906 31.761719 19.5625 L 31.761719 21.222656 C 31.761719 21.40625 31.613281 21.558594 31.425781 21.558594 L 30.210938 21.558594 L 30.210938 28.984375 C 30.210938 29.171875 30.058594 29.320312 29.875 29.320312 L 28.214844 29.320312 C 28.03125 29.320312 27.882812 29.171875 27.882812 28.984375 L 27.882812 21.558594 L 26.691406 21.558594 C 26.511719 21.558594 26.359375 21.40625 26.359375 21.222656 Z M 38.742188 28.90625 C 38.742188 29.132812 38.550781 29.320312 38.324219 29.320312 L 36.839844 29.320312 C 36.609375 29.320312 36.421875 29.132812 36.421875 28.90625 L 36.421875 22.3125 C 36.421875 21.316406 34.867188 21.316406 34.867188 22.3125 L 34.867188 28.90625 C 34.867188 29.132812 34.679688 29.320312 34.449219 29.320312 L 32.957031 29.320312 C 32.726562 29.320312 32.539062 29.132812 32.539062 28.90625 L 32.539062 19.644531 C 32.539062 19.417969 32.726562 19.230469 32.957031 19.230469 L 34.492188 19.230469 C 34.722656 19.230469 34.910156 19.417969 34.910156 19.644531 L 34.910156 19.871094 C 35.933594 18.890625 37.472656 19.117188 38.335938 20.050781 C 39.964844 18.183594 42.753906 19.847656 42.625 21.894531 C 42.625 24.15625 42.605469 26.621094 42.605469 28.90625 C 42.605469 29.132812 42.414062 29.320312 42.1875 29.320312 L 40.71875 29.320312 C 40.488281 29.320312 40.300781 29.132812 40.300781 28.90625 C 40.300781 26.742188 40.300781 24.480469 40.300781 22.351562 C 40.300781 21.339844 38.75 21.289062 38.75 22.351562 L 38.75 28.90625 Z M 38.742188 28.90625 "/>
</g>
</svg>
