<?xml version="1.0" encoding="UTF-8"?>
<svg xmlns="http://www.w3.org/2000/svg" xmlns:xlink="http://www.w3.org/1999/xlink" viewBox="0 0 48 48" width="48px" height="48px">
<g id="surface37212197">
<path style=" stroke:none;fill-rule:nonzero;fill:rgb(100%,86.274511%,74.509805%);fill-opacity:1;" d="M 24 48 C 10.746094 48 0 37.253906 0 24 C 0 10.746094 10.746094 0 24 0 C 37.253906 0 48 10.746094 48 24 C 48 37.253906 37.253906 48 24 48 Z M 24 48 "/>
<path style=" stroke:none;fill-rule:nonzero;fill:rgb(90.196079%,49.411765%,13.333334%);fill-opacity:1;" d="M 23.050781 8.160156 C 15.1875 8.160156 8.792969 14.554688 8.792969 22.414062 C 8.792969 30.277344 15.1875 36.671875 23.050781 36.671875 C 24.695312 36.671875 25.859375 36.484375 26.886719 36.320312 C 27.785156 36.175781 28.632812 36.039062 29.703125 36.039062 C 34.875 36.039062 38.066406 39.589844 38.097656 39.625 C 38.21875 39.765625 38.394531 39.839844 38.574219 39.839844 C 38.691406 39.839844 38.808594 39.804688 38.914062 39.738281 C 39.179688 39.570312 39.277344 39.234375 39.152344 38.949219 C 39.082031 38.789062 37.359375 35.078125 30.457031 33.480469 L 30.269531 33.429688 C 28.566406 33.007812 27.1875 32.320312 26.179688 31.386719 C 24.875 30.179688 24.625 28.964844 24.625 28.957031 C 24.566406 28.632812 24.261719 28.410156 23.941406 28.4375 C 23.617188 28.46875 23.367188 28.742188 23.367188 29.070312 C 23.367188 29.132812 23.371094 30.394531 23.589844 31.582031 C 23.402344 31.597656 23.222656 31.601562 23.050781 31.601562 C 17.984375 31.601562 13.863281 27.480469 13.863281 22.414062 C 13.863281 17.351562 17.984375 13.226562 23.050781 13.226562 C 28.113281 13.226562 32.238281 17.351562 32.238281 22.414062 C 32.238281 22.792969 32.214844 23.175781 32.164062 23.554688 C 30.96875 23.367188 29.78125 23.367188 29.703125 23.367188 C 29.332031 23.367188 29.070312 23.683594 29.070312 24.011719 C 29.078125 24.355469 29.355469 24.632812 29.699219 24.632812 C 29.714844 24.632812 31.03125 24.644531 32.210938 25.402344 C 34.167969 26.660156 34.636719 28.558594 34.640625 28.574219 C 34.699219 28.835938 34.914062 29.03125 35.183594 29.0625 C 35.445312 29.089844 35.703125 28.957031 35.824219 28.714844 C 36.808594 26.730469 37.304688 24.609375 37.304688 22.414062 C 37.304688 14.554688 30.910156 8.160156 23.050781 8.160156 Z M 32.640625 28.4375 C 32.484375 28.425781 32.363281 28.496094 32.296875 28.609375 C 32.160156 28.84375 32.261719 29.3125 32.53125 29.71875 C 32.808594 30.128906 33.039062 30.335938 33.222656 30.335938 C 33.394531 30.335938 33.5625 30.125 33.484375 29.609375 C 33.4375 29.300781 33.257812 28.636719 32.804688 28.472656 C 32.746094 28.449219 32.691406 28.4375 32.640625 28.4375 Z M 30.570312 30.335938 C 30.285156 30.335938 30.046875 30.410156 29.902344 30.550781 C 29.527344 30.917969 29.695312 31.5625 30.269531 31.960938 C 30.519531 32.132812 30.878906 32.238281 31.230469 32.238281 C 31.589844 32.238281 31.890625 32.128906 32.074219 31.933594 C 32.410156 31.578125 32.21875 31.078125 31.589844 30.65625 C 31.277344 30.445312 30.914062 30.335938 30.570312 30.335938 Z M 30.570312 30.335938 "/>
</g>
</svg>
