<?xml version="1.0" encoding="UTF-8"?>
<svg xmlns="http://www.w3.org/2000/svg" xmlns:xlink="http://www.w3.org/1999/xlink" viewBox="0 0 48 48" width="48px" height="48px">
<g id="surface37216572">
<path style=" stroke:none;fill-rule:nonzero;fill:rgb(85.09804%,92.54902%,97.254902%);fill-opacity:1;" d="M 24 48 C 10.746094 48 0 37.253906 0 24 C 0 10.746094 10.746094 0 24 0 C 37.253906 0 48 10.746094 48 24 C 48 37.253906 37.253906 48 24 48 Z M 24 48 "/>
<path style=" stroke:none;fill-rule:nonzero;fill:rgb(0.784314%,46.666667%,74.117649%);fill-opacity:1;" d="M 18.269531 16.421875 L 22.132812 13.027344 L 25.527344 16.890625 L 21.664062 20.285156 Z M 18.269531 16.421875 "/>
<path style=" stroke:none;fill-rule:nonzero;fill:rgb(0.784314%,46.666667%,74.117649%);fill-opacity:1;" d="M 21.066406 23.046875 L 24.929688 19.652344 L 28.324219 23.515625 L 24.460938 26.910156 Z M 21.066406 23.046875 "/>
<path style=" stroke:none;fill-rule:nonzero;fill:rgb(0.784314%,46.666667%,74.117649%);fill-opacity:1;" d="M 23.707031 29.59375 L 27.570312 26.203125 L 30.964844 30.066406 L 27.101562 33.457031 Z M 23.707031 29.59375 "/>
<path style=" stroke:none;fill-rule:nonzero;fill:rgb(0.784314%,46.666667%,74.117649%);fill-opacity:1;" d="M 32.730469 32.246094 L 35.730469 29.609375 L 38.367188 32.613281 L 35.367188 35.246094 Z M 32.730469 32.246094 "/>
<path style=" stroke:none;fill-rule:nonzero;fill:rgb(0.784314%,46.666667%,74.117649%);fill-opacity:1;" d="M 30.3125 26.390625 L 33.234375 23.824219 L 35.800781 26.746094 L 32.878906 29.3125 Z M 30.3125 26.390625 "/>
<path style=" stroke:none;fill-rule:nonzero;fill:rgb(0.784314%,46.666667%,74.117649%);fill-opacity:1;" d="M 27.859375 20.339844 L 30.78125 17.773438 L 33.347656 20.695312 L 30.425781 23.261719 Z M 27.859375 20.339844 "/>
<path style=" stroke:none;fill-rule:nonzero;fill:rgb(0.784314%,46.666667%,74.117649%);fill-opacity:1;" d="M 25.257812 14.671875 L 28.179688 12.105469 L 30.746094 15.027344 L 27.824219 17.59375 Z M 25.257812 14.671875 "/>
<path style=" stroke:none;fill-rule:nonzero;fill:rgb(0.784314%,46.666667%,74.117649%);fill-opacity:1;" d="M 31.628906 13.316406 L 33.53125 11.644531 L 35.203125 13.546875 L 33.300781 15.21875 Z M 31.628906 13.316406 "/>
<path style=" stroke:none;fill-rule:nonzero;fill:rgb(0.784314%,46.666667%,74.117649%);fill-opacity:1;" d="M 34.042969 18.984375 L 35.941406 17.3125 L 37.613281 19.214844 L 35.710938 20.886719 Z M 34.042969 18.984375 "/>
<path style=" stroke:none;fill-rule:nonzero;fill:rgb(0.784314%,46.666667%,74.117649%);fill-opacity:1;" d="M 36.414062 24.652344 L 38.316406 22.980469 L 39.988281 24.882812 L 38.085938 26.554688 Z M 36.414062 24.652344 "/>
<path style=" stroke:none;fill-rule:nonzero;fill:rgb(0.784314%,46.666667%,74.117649%);fill-opacity:1;" d="M 18.269531 16.421875 L 22.132812 13.027344 L 25.527344 16.890625 L 21.664062 20.285156 Z M 18.269531 16.421875 "/>
<path style=" stroke:none;fill-rule:nonzero;fill:rgb(0.784314%,46.666667%,74.117649%);fill-opacity:1;" d="M 21.066406 23.046875 L 24.929688 19.652344 L 28.324219 23.515625 L 24.460938 26.910156 Z M 21.066406 23.046875 "/>
<path style=" stroke:none;fill-rule:nonzero;fill:rgb(0.784314%,46.666667%,74.117649%);fill-opacity:1;" d="M 23.707031 29.59375 L 27.570312 26.203125 L 30.964844 30.066406 L 27.101562 33.460938 Z M 23.707031 29.59375 "/>
<path style=" stroke:none;fill-rule:nonzero;fill:rgb(0.784314%,46.666667%,74.117649%);fill-opacity:1;" d="M 32.730469 32.246094 L 35.730469 29.609375 L 38.367188 32.613281 L 35.367188 35.246094 Z M 32.730469 32.246094 "/>
<path style=" stroke:none;fill-rule:nonzero;fill:rgb(0.784314%,46.666667%,74.117649%);fill-opacity:1;" d="M 30.3125 26.390625 L 33.234375 23.824219 L 35.800781 26.746094 L 32.878906 29.3125 Z M 30.3125 26.390625 "/>
<path style=" stroke:none;fill-rule:nonzero;fill:rgb(0.784314%,46.666667%,74.117649%);fill-opacity:1;" d="M 27.859375 20.339844 L 30.78125 17.773438 L 33.347656 20.695312 L 30.425781 23.261719 Z M 27.859375 20.339844 "/>
<path style=" stroke:none;fill-rule:nonzero;fill:rgb(0.784314%,46.666667%,74.117649%);fill-opacity:1;" d="M 25.257812 14.671875 L 28.179688 12.105469 L 30.746094 15.027344 L 27.824219 17.59375 Z M 25.257812 14.671875 "/>
<path style=" stroke:none;fill-rule:nonzero;fill:rgb(0.784314%,46.666667%,74.117649%);fill-opacity:1;" d="M 31.628906 13.316406 L 33.53125 11.644531 L 35.203125 13.546875 L 33.300781 15.21875 Z M 31.628906 13.316406 "/>
<path style=" stroke:none;fill-rule:nonzero;fill:rgb(0.784314%,46.666667%,74.117649%);fill-opacity:1;" d="M 34.042969 18.984375 L 35.941406 17.3125 L 37.613281 19.214844 L 35.710938 20.886719 Z M 34.042969 18.984375 "/>
<path style=" stroke:none;fill-rule:nonzero;fill:rgb(0.784314%,46.666667%,74.117649%);fill-opacity:1;" d="M 36.414062 24.652344 L 38.316406 22.980469 L 39.988281 24.882812 L 38.085938 26.554688 Z M 36.414062 24.652344 "/>
<path style=" stroke:none;fill-rule:nonzero;fill:rgb(0.784314%,46.666667%,74.117649%);fill-opacity:1;" d="M 30.695312 32.964844 L 26.917969 36.28125 L 20.886719 29.414062 L 22.640625 27.871094 L 18.242188 22.863281 L 19.949219 21.363281 L 15.449219 16.238281 L 22.316406 10.203125 L 24.492188 12.679688 L 28.359375 9.28125 L 30.460938 11.675781 L 32.109375 10.226562 C 29.730469 8.820312 26.964844 8 24 8 C 15.160156 8 8 15.164062 8 24 C 8 32.835938 15.160156 40 24 40 C 27.726562 40 31.152344 38.714844 33.871094 36.574219 Z M 30.695312 32.964844 "/>
</g>
</svg>
